<svg width="180" height="24" viewBox="0 0 180 24" fill="none" xmlns="http://www.w3.org/2000/svg">
<mask id="mask0_55_1668" style="mask-type:alpha" maskUnits="userSpaceOnUse" x="0" y="0" width="24" height="24">
<rect width="24" height="24" fill="#D9D9D9"/>
</mask>
<g mask="url(#mask0_55_1668)">
<path d="M12 22C10.6167 22 9.31667 21.7375 8.1 21.2125C6.88333 20.6875 5.825 19.975 4.925 19.075C4.025 18.175 3.3125 17.1167 2.7875 15.9C2.2625 14.6833 2 13.3833 2 12C2 10.6167 2.2625 9.31667 2.7875 8.1C3.3125 6.88333 4.025 5.825 4.925 4.925C5.825 4.025 6.88333 3.3125 8.1 2.7875C9.31667 2.2625 10.6167 2 12 2C13.3833 2 14.6833 2.2625 15.9 2.7875C17.1167 3.3125 18.175 4.025 19.075 4.925C19.975 5.825 20.6875 6.88333 21.2125 8.1C21.7375 9.31667 22 10.6167 22 12C22 13.3833 21.7375 14.6833 21.2125 15.9C20.6875 17.1167 19.975 18.175 19.075 19.075C18.175 19.975 17.1167 20.6875 15.9 21.2125C14.6833 21.7375 13.3833 22 12 22ZM12 20C14.2333 20 16.125 19.225 17.675 17.675C19.225 16.125 20 14.2333 20 12C20 9.76667 19.225 7.875 17.675 6.325C16.125 4.775 14.2333 4 12 4C9.76667 4 7.875 4.775 6.325 6.325C4.775 7.875 4 9.76667 4 12C4 14.2333 4.775 16.125 6.325 17.675C7.875 19.225 9.76667 20 12 20ZM10 16H14C14.2833 16 14.5208 15.9042 14.7125 15.7125C14.9042 15.5208 15 15.2833 15 15V14C15 13.7167 14.9042 13.4792 14.7125 13.2875C14.5208 13.0958 14.2833 13 14 13C13.7167 13 13.4792 13.0958 13.2875 13.2875C13.0958 13.4792 13 13.7167 13 14H11V10H13C13 10.2833 13.0958 10.5208 13.2875 10.7125C13.4792 10.9042 13.7167 11 14 11C14.2833 11 14.5208 10.9042 14.7125 10.7125C14.9042 10.5208 15 10.2833 15 10V9C15 8.71667 14.9042 8.47917 14.7125 8.2875C14.5208 8.09583 14.2833 8 14 8H10C9.71667 8 9.47917 8.09583 9.2875 8.2875C9.09583 8.47917 9 8.71667 9 9V15C9 15.2833 9.09583 15.5208 9.2875 15.7125C9.47917 15.9042 9.71667 16 10 16Z" fill="white"/>
</g>
<path d="M32.086 8.578C33.394 8.578 34.306 8.914 34.822 9.586C35.35 10.258 35.614 10.948 35.614 11.656C35.614 12.34 35.392 12.976 34.948 13.564C34.504 14.14 33.85 14.806 32.986 15.562L30.34 17.884H35.794L35.974 19H28.558V17.938L32.212 14.626C32.968 13.942 33.49 13.396 33.778 12.988C34.066 12.568 34.21 12.124 34.21 11.656C34.21 11.104 34.03 10.648 33.67 10.288C33.31 9.928 32.77 9.748 32.05 9.748C31.486 9.748 30.946 9.892 30.43 10.18C29.926 10.468 29.668 10.618 29.656 10.63L29.026 9.604C29.122 9.544 29.446 9.358 29.998 9.046C30.562 8.734 31.258 8.578 32.086 8.578ZM37.9565 13.834C37.9565 12.202 38.3645 10.918 39.1805 9.982C39.9965 9.046 41.0585 8.578 42.3665 8.578C43.6745 8.578 44.7305 9.034 45.5345 9.946C46.3385 10.846 46.7405 12.136 46.7405 13.816C46.7405 15.448 46.3265 16.762 45.4985 17.758C44.6705 18.742 43.6265 19.234 42.3665 19.234C41.0825 19.234 40.0265 18.754 39.1985 17.794C38.3705 16.834 37.9565 15.514 37.9565 13.834ZM39.3785 13.78C39.3785 15.112 39.6605 16.15 40.2245 16.894C40.7885 17.638 41.5025 18.01 42.3665 18.01C43.1945 18.01 43.8965 17.638 44.4725 16.894C45.0485 16.15 45.3365 15.142 45.3365 13.87C45.3365 12.55 45.0545 11.542 44.4905 10.846C43.9385 10.138 43.2305 9.784 42.3665 9.784C41.5145 9.784 40.8005 10.138 40.2245 10.846C39.6605 11.542 39.3785 12.52 39.3785 13.78ZM51.9317 8.578C53.2397 8.578 54.1517 8.914 54.6677 9.586C55.1957 10.258 55.4597 10.948 55.4597 11.656C55.4597 12.34 55.2377 12.976 54.7937 13.564C54.3497 14.14 53.6957 14.806 52.8317 15.562L50.1857 17.884H55.6397L55.8197 19H48.4037V17.938L52.0577 14.626C52.8137 13.942 53.3357 13.396 53.6237 12.988C53.9117 12.568 54.0557 12.124 54.0557 11.656C54.0557 11.104 53.8757 10.648 53.5157 10.288C53.1557 9.928 52.6157 9.748 51.8957 9.748C51.3317 9.748 50.7917 9.892 50.2757 10.18C49.7717 10.468 49.5137 10.618 49.5017 10.63L48.8717 9.604C48.9677 9.544 49.2917 9.358 49.8437 9.046C50.4077 8.734 51.1037 8.578 51.9317 8.578ZM58.2702 14.968L58.5582 8.812H64.6962L64.5162 9.982H59.8542L59.6922 13.51C59.9802 13.33 60.2862 13.192 60.6102 13.096C60.9342 12.988 61.2522 12.934 61.5642 12.934C62.8962 12.934 63.8622 13.3 64.4622 14.032C65.0622 14.752 65.3682 15.604 65.3802 16.588C65.3802 17.632 65.0142 18.52 64.2822 19.252C63.5502 19.996 62.5062 20.368 61.1502 20.368C60.4902 20.368 59.8482 20.26 59.2242 20.044C58.6002 19.84 58.0662 19.624 57.6222 19.396L58.3602 18.388C58.8042 18.64 59.2362 18.838 59.6562 18.982C60.0762 19.126 60.5982 19.198 61.2222 19.198C62.0382 19.198 62.6982 18.964 63.2022 18.496C63.7062 18.028 63.9582 17.392 63.9582 16.588C63.9582 15.796 63.7422 15.184 63.3102 14.752C62.8782 14.32 62.3202 14.104 61.6362 14.104C61.1682 14.104 60.7542 14.206 60.3942 14.41C60.0462 14.614 59.7942 14.8 59.6382 14.968H58.2702ZM75.7017 6.76C76.9617 6.76 77.9937 6.994 78.7977 7.462C79.6017 7.93 80.0037 8.776 80.0037 10C80.0037 10.576 79.8657 11.068 79.5897 11.476C79.3137 11.884 78.9477 12.208 78.4917 12.448C79.1877 12.688 79.7517 13.06 80.1837 13.564C80.6277 14.068 80.8497 14.734 80.8497 15.562C80.8497 16.81 80.4117 17.698 79.5357 18.226C78.6597 18.742 77.5857 19 76.3137 19H72.4797V6.76H75.7017ZM75.6297 7.966H73.8837V12.088H75.5577C76.4217 12.076 77.1357 11.926 77.6997 11.638C78.2637 11.35 78.5457 10.816 78.5457 10.036C78.5457 9.184 78.2817 8.626 77.7537 8.362C77.2257 8.098 76.5177 7.966 75.6297 7.966ZM76.4757 13.24H73.8837V17.812H76.2957C77.1597 17.812 77.8917 17.656 78.4917 17.344C79.0917 17.02 79.3917 16.438 79.3917 15.598C79.3917 14.77 79.1277 14.17 78.5997 13.798C78.0717 13.426 77.3637 13.24 76.4757 13.24ZM88.8275 18.046C88.4435 18.394 87.9995 18.682 87.4955 18.91C86.9915 19.138 86.5055 19.252 86.0375 19.252C85.0175 19.252 84.2675 18.964 83.7875 18.388C83.3195 17.8 83.0855 17.062 83.0855 16.174V10.27H84.5075V16.012C84.5075 16.6 84.6515 17.086 84.9395 17.47C85.2275 17.854 85.6655 18.046 86.2535 18.046C86.5895 18.046 86.9855 17.95 87.4415 17.758C87.8975 17.566 88.3175 17.296 88.7015 16.948V10.27H90.1235V19H89.2415L88.8275 18.046ZM92.9313 19V10.27H93.7953L94.2273 11.494C94.5513 11.218 94.9653 10.948 95.4693 10.684C95.9853 10.408 96.4773 10.27 96.9453 10.27C96.9933 10.462 97.0473 10.654 97.1073 10.846C97.1673 11.026 97.2273 11.212 97.2873 11.404C96.7713 11.404 96.2493 11.548 95.7213 11.836C95.1933 12.112 94.7373 12.442 94.3533 12.826V19H92.9313ZM104.561 12.178C104.225 11.878 103.859 11.644 103.463 11.476C103.079 11.308 102.719 11.224 102.383 11.224C101.447 11.224 100.781 11.56 100.385 12.232C100.001 12.892 99.8088 13.69 99.8088 14.626C99.8088 15.598 99.9948 16.408 100.367 17.056C100.751 17.704 101.423 18.028 102.383 18.028C102.719 18.028 103.079 17.944 103.463 17.776C103.859 17.608 104.225 17.374 104.561 17.074V12.178ZM106.001 19.702C106.001 20.614 105.683 21.376 105.047 21.988C104.423 22.6 103.487 22.906 102.239 22.906C101.879 22.906 101.393 22.834 100.781 22.69C100.169 22.558 99.6768 22.36 99.3048 22.096L99.7368 21.07C100.097 21.226 100.451 21.376 100.799 21.52C101.159 21.664 101.627 21.736 102.203 21.736C102.923 21.736 103.493 21.562 103.913 21.214C104.345 20.878 104.561 20.368 104.561 19.684V18.352C104.213 18.616 103.817 18.826 103.373 18.982C102.941 19.138 102.533 19.216 102.149 19.216C100.877 19.216 99.9228 18.79 99.2868 17.938C98.6628 17.074 98.3508 15.976 98.3508 14.644C98.3508 13.312 98.6688 12.208 99.3048 11.332C99.9528 10.456 100.913 10.018 102.185 10.018C102.605 10.018 103.049 10.12 103.517 10.324C103.985 10.516 104.405 10.762 104.777 11.062C104.837 10.942 104.897 10.816 104.957 10.684C105.017 10.54 105.077 10.402 105.137 10.27H106.001V19.702ZM116.13 14.86H109.794C109.83 15.784 110.076 16.552 110.532 17.164C110.988 17.764 111.708 18.064 112.692 18.064C113.28 18.064 113.754 18.004 114.114 17.884C114.486 17.752 114.84 17.608 115.176 17.452L115.626 18.496C115.254 18.748 114.768 18.928 114.168 19.036C113.568 19.156 113.088 19.216 112.728 19.216C111.276 19.216 110.178 18.79 109.434 17.938C108.69 17.074 108.318 15.964 108.318 14.608C108.33 13.288 108.684 12.196 109.38 11.332C110.088 10.468 111.09 10.036 112.386 10.036C113.742 10.036 114.702 10.516 115.266 11.476C115.842 12.424 116.13 13.552 116.13 14.86ZM114.726 13.888C114.63 13.108 114.396 12.472 114.024 11.98C113.652 11.488 113.088 11.242 112.332 11.242C111.576 11.242 110.988 11.488 110.568 11.98C110.16 12.472 109.914 13.108 109.83 13.888H114.726ZM118.349 19V10.27H119.213L119.645 11.494C119.969 11.218 120.383 10.948 120.887 10.684C121.403 10.408 121.895 10.27 122.363 10.27C122.411 10.462 122.465 10.654 122.525 10.846C122.585 11.026 122.645 11.212 122.705 11.404C122.189 11.404 121.667 11.548 121.139 11.836C120.611 12.112 120.155 12.442 119.771 12.826V19H118.349ZM131.851 19V13.402H126.091V19H124.669V6.76L126.091 6.67V12.268H131.851V6.76H133.273V19H131.851ZM139.82 19.234C138.536 19.222 137.57 18.784 136.922 17.92C136.274 17.056 135.95 15.946 135.95 14.59C135.962 13.27 136.316 12.184 137.012 11.332C137.708 10.48 138.704 10.048 140 10.036C141.32 10.036 142.304 10.474 142.952 11.35C143.612 12.226 143.942 13.342 143.942 14.698C143.93 16.03 143.564 17.122 142.844 17.974C142.124 18.814 141.116 19.234 139.82 19.234ZM142.52 14.698C142.52 13.702 142.328 12.88 141.944 12.232C141.572 11.584 140.936 11.26 140.036 11.26C139.148 11.26 138.488 11.572 138.056 12.196C137.636 12.808 137.42 13.6 137.408 14.572C137.408 15.592 137.588 16.42 137.948 17.056C138.308 17.692 138.938 18.01 139.838 18.01C140.738 18.01 141.404 17.71 141.836 17.11C142.28 16.51 142.508 15.706 142.52 14.698ZM151.898 18.046C151.514 18.394 151.07 18.682 150.566 18.91C150.062 19.138 149.576 19.252 149.108 19.252C148.088 19.252 147.338 18.964 146.858 18.388C146.39 17.8 146.156 17.062 146.156 16.174V10.27H147.578V16.012C147.578 16.6 147.722 17.086 148.01 17.47C148.298 17.854 148.736 18.046 149.324 18.046C149.66 18.046 150.056 17.95 150.512 17.758C150.968 17.566 151.388 17.296 151.772 16.948V10.27H153.194V19H152.312L151.898 18.046ZM160.97 11.854C160.682 11.71 160.352 11.572 159.98 11.44C159.608 11.308 159.164 11.242 158.648 11.242C158.12 11.242 157.694 11.35 157.37 11.566C157.058 11.782 156.902 12.076 156.902 12.448C156.902 12.784 157.082 13.072 157.442 13.312C157.814 13.54 158.288 13.75 158.864 13.942C159.572 14.194 160.232 14.536 160.844 14.968C161.468 15.4 161.78 15.976 161.78 16.696C161.78 17.488 161.48 18.112 160.88 18.568C160.292 19.012 159.428 19.234 158.288 19.234C157.916 19.234 157.448 19.168 156.884 19.036C156.32 18.916 155.858 18.736 155.498 18.496L155.93 17.416C156.266 17.584 156.638 17.728 157.046 17.848C157.466 17.968 157.886 18.028 158.306 18.028C158.954 18.028 159.458 17.926 159.818 17.722C160.178 17.518 160.358 17.206 160.358 16.786C160.358 16.414 160.16 16.09 159.764 15.814C159.368 15.526 158.876 15.286 158.288 15.094C157.604 14.866 156.956 14.554 156.344 14.158C155.744 13.75 155.444 13.204 155.444 12.52C155.444 11.74 155.732 11.134 156.308 10.702C156.896 10.258 157.688 10.036 158.684 10.036C159.056 10.036 159.518 10.108 160.07 10.252C160.622 10.384 161.066 10.57 161.402 10.81L160.97 11.854ZM171.325 14.86H164.989C165.025 15.784 165.271 16.552 165.727 17.164C166.183 17.764 166.903 18.064 167.887 18.064C168.475 18.064 168.949 18.004 169.309 17.884C169.681 17.752 170.035 17.608 170.371 17.452L170.821 18.496C170.449 18.748 169.963 18.928 169.363 19.036C168.763 19.156 168.283 19.216 167.923 19.216C166.471 19.216 165.373 18.79 164.629 17.938C163.885 17.074 163.513 15.964 163.513 14.608C163.525 13.288 163.879 12.196 164.575 11.332C165.283 10.468 166.285 10.036 167.581 10.036C168.937 10.036 169.897 10.516 170.461 11.476C171.037 12.424 171.325 13.552 171.325 14.86ZM169.921 13.888C169.825 13.108 169.591 12.472 169.219 11.98C168.847 11.488 168.283 11.242 167.527 11.242C166.771 11.242 166.183 11.488 165.763 11.98C165.355 12.472 165.109 13.108 165.025 13.888H169.921Z" fill="white"/>
</svg>
